<?xml version="1.0" encoding="UTF-8"?>
<svg version="1.1" xmlns="http://www.w3.org/2000/svg" width="251" height="291">
<path d="M0 0 C5.62112672 3.33064892 9.86259221 7.63750491 11.65234375 14.05078125 C12.22309908 21.12814734 10.8445391 25.8355614 6.77734375 31.80078125 C3.54596046 35.22224591 0.27420341 37.20277293 -4.34765625 38.05078125 C-6.09752261 37.94742106 -7.84609646 37.82063365 -9.59301758 37.67578125 C-13.95181486 37.64685908 -16.2129107 38.13311776 -19.53393555 40.98828125 C-20.85846789 42.31453353 -22.15363852 43.67059746 -23.421875 45.05078125 C-24.11658401 45.76105469 -24.81129303 46.47132813 -25.52705383 47.203125 C-27.72376032 49.46104444 -29.87897791 51.75419724 -32.03515625 54.05078125 C-33.52410453 55.59494773 -35.01561858 57.13664456 -36.50976562 58.67578125 C-40.15257249 62.43937854 -43.76213153 66.23261585 -47.34765625 70.05078125 C-46.22706008 72.8969133 -45.05875076 75.66844127 -43.76171875 78.44140625 C-38.06131759 90.63454845 -33.97397292 103.49728859 -33.34765625 117.05078125 C-33.28449219 117.96472656 -33.22132813 118.87867188 -33.15625 119.8203125 C-32.97607944 124.16184187 -33.04327586 127.31750123 -34.72265625 131.36328125 C-46.51865411 143.4401362 -65.42301379 146.83336418 -81.34765625 150.05078125 C-82.33475586 150.25123047 -83.32185547 150.45167969 -84.33886719 150.65820312 C-123.1313596 158.20153126 -177.0645918 158.58179822 -212.0078125 137.44140625 C-213.89891933 136.05482338 -215.64227461 134.65716976 -217.34765625 133.05078125 C-217.86424805 132.60573242 -218.38083984 132.16068359 -218.91308594 131.70214844 C-221.40946357 128.8285102 -220.83021434 125.11671916 -220.78515625 121.48828125 C-220.77830811 120.6463623 -220.77145996 119.80444336 -220.7644043 118.93701172 C-220.22875389 97.43476053 -212.12940867 76.48854591 -198.34765625 60.05078125 C-197.77660156 59.32246094 -197.20554687 58.59414062 -196.6171875 57.84375 C-182.85737114 41.09139362 -161.26885089 31.96530518 -140.1328125 29.3671875 C-113.27900487 27.12244197 -86.79632311 32.34424659 -65.6640625 50.05859375 C-64.89964844 50.71601563 -64.13523438 51.3734375 -63.34765625 52.05078125 C-62.30078758 52.9272811 -61.25247181 53.80205484 -60.20288086 54.67529297 C-58.78954468 55.85115967 -58.78954468 55.85115967 -57.34765625 57.05078125 C-53.029399 53.08089404 -48.76110215 49.0653801 -44.53027344 45.00244141 C-43.08765238 43.62985363 -41.632666 42.27013359 -40.16503906 40.92431641 C-31.34635333 33.30735488 -31.34635333 33.30735488 -26.515625 23.14550781 C-26.51418617 19.48964604 -26.51418617 19.48964604 -27.11328125 16.14111328 C-27.40907209 12.24098779 -26.3632575 10.35057186 -24.34765625 7.05078125 C-18.01151066 -0.31284741 -9.43397869 -3.81440403 0 0 Z M-140.921875 43.76953125 C-145.01664677 49.30744608 -146.12275506 54.21883884 -145.34765625 61.05078125 C-143.69222865 66.64532873 -140.85852346 69.96903108 -136.03125 73.140625 C-133.48150621 74.51902477 -131.80920447 75.12584787 -128.921875 74.65625 C-124.66780364 74.04030191 -121.21186053 73.92971079 -117.41845703 76.2109375 C-111.73210984 80.52248607 -106.10882148 85.51270166 -104.5703125 92.6640625 C-104.65445488 95.83586441 -104.98448012 98.90177844 -105.34765625 102.05078125 C-103.39971004 108.35296015 -98.5030623 112.31530792 -92.84765625 115.42578125 C-86.95872137 116.89801497 -82.5217511 116.25140685 -77.27734375 113.39453125 C-73.10359749 110.48811685 -69.95644977 106.8771618 -68.34765625 102.05078125 C-68.51855686 100.2012412 -68.69653766 98.35235076 -68.87890625 96.50390625 C-68.92445769 91.10606065 -67.8524562 88.67526765 -64.19140625 84.72265625 C-62.43997438 83.05023634 -60.65749545 81.40981326 -58.84765625 79.80078125 C-57.94144531 78.94871094 -57.03523438 78.09664062 -56.1015625 77.21875 C-53.87502508 75.132836 -51.62568765 73.08009142 -49.34765625 71.05078125 C-50.27784151 69.58777143 -51.21709652 68.13052546 -52.16015625 66.67578125 C-52.68222656 65.86367187 -53.20429688 65.0515625 -53.7421875 64.21484375 C-55.33202822 61.81727884 -55.33202822 61.81727884 -58.34765625 60.05078125 C-58.82895996 60.62634766 -59.31026367 61.20191406 -59.80615234 61.79492188 C-75.33870261 79.93887986 -75.33870261 79.93887986 -84.46582031 81.05029297 C-92.01977953 81.05192732 -97.48609658 78.58000779 -102.97265625 73.42578125 C-107.34235585 68.78835105 -109.07285975 65.2817915 -108.91015625 58.73828125 C-108.79414062 57.57941406 -108.678125 56.42054688 -108.55859375 55.2265625 C-108.25361687 50.63496607 -109.5601445 47.63472492 -112.34765625 44.05078125 C-116.64065702 39.86785742 -120.70715145 37.98211083 -126.66015625 37.67578125 C-132.34873254 37.8366894 -137.02669715 39.51673161 -140.921875 43.76953125 Z " fill="#2229D2" transform="translate(230.34765625,126.94921875)"/>
<path d="M0 0 C12.56089893 10.21032135 20.73078311 26.45086865 22.69140625 42.37890625 C24.10018683 61.73914022 21.83476058 81.1080656 9.07421875 96.7109375 C-2.41797852 109.96559359 -16.7475624 118.71976149 -34.48388672 120.61083984 C-52.69728824 121.87671318 -69.98399849 117.49954969 -84.12573242 105.51977539 C-90.06787904 100.21458666 -94.56359377 94.41709656 -98.30859375 87.37890625 C-98.77910156 86.50621094 -99.24960938 85.63351563 -99.734375 84.734375 C-108.27345554 67.53026877 -108.6291364 47.50969651 -102.984375 29.36767578 C-97.9315249 14.49754683 -88.08672914 2.10457737 -74.30859375 -5.62109375 C-49.98682513 -17.419202 -22.20812731 -15.59453948 0 0 Z " fill="#2229D2" transform="translate(145.30859375,23.62109375)"/>
</svg>
